<mxfile host="Electron" modified="2024-02-28T15:19:40.415Z" agent="Mozilla/5.0 (X11; Linux x86_64) AppleWebKit/537.36 (KHTML, like Gecko) draw.io/23.1.5 Chrome/120.0.6099.109 Electron/28.1.0 Safari/537.36" etag="28dXhBlnCZ2ZTvsO8O6r" version="23.1.5" type="device">
  <diagram id="S2wTtjFpLe0GDu7HND0W" name="Page-1">
    <mxGraphModel dx="1434" dy="769" grid="1" gridSize="10" guides="1" tooltips="1" connect="1" arrows="1" fold="1" page="1" pageScale="1" pageWidth="850" pageHeight="1100" math="0" shadow="0">
      <root>
        <mxCell id="0" />
        <mxCell id="1" parent="0" />
        <mxCell id="fU0-VgSZ7xX_Alot_kdX-5" value="&lt;font style=&quot;font-size: 19px&quot; color=&quot;#5e5e5e&quot;&gt;DA PHASE&lt;/font&gt;" style="rounded=0;whiteSpace=wrap;html=1;dashed=1;strokeColor=#A6A6A6;align=left;verticalAlign=top;fontColor=#CFCFCF;" parent="1" vertex="1">
          <mxGeometry x="43" y="710" width="510" height="360" as="geometry" />
        </mxCell>
        <mxCell id="fU0-VgSZ7xX_Alot_kdX-4" value="&lt;font color=&quot;#424242&quot; style=&quot;font-size: 17px&quot;&gt;WPS PHASE&lt;/font&gt;" style="rounded=0;whiteSpace=wrap;html=1;dashed=1;strokeColor=#A6A6A6;align=left;verticalAlign=top;fontColor=#CFCFCF;" parent="1" vertex="1">
          <mxGeometry x="48" y="170" width="760" height="270" as="geometry" />
        </mxCell>
        <mxCell id="fU0-VgSZ7xX_Alot_kdX-6" value="&lt;div style=&quot;font-size: 14px&quot;&gt;&lt;font color=&quot;#454545&quot; style=&quot;font-size: 14px&quot;&gt;WPS phase produces this set of files as output, the orchestrator should copy them from the cloud to the HPC environment in order to use them as input for the DA phase.&lt;/font&gt;&lt;/div&gt;&lt;div style=&quot;font-size: 14px&quot;&gt;&lt;font color=&quot;#454545&quot; style=&quot;font-size: 14px&quot;&gt;&lt;br style=&quot;font-size: 14px&quot;&gt;&lt;/font&gt;&lt;/div&gt;&lt;div style=&quot;font-size: 16px&quot;&gt;&lt;font color=&quot;#454545&quot; style=&quot;font-size: 16px&quot;&gt;&lt;b&gt;wrfbdy_d01_da0&amp;lt;N&amp;gt;&lt;/b&gt;&lt;/font&gt;&lt;/div&gt;&lt;div style=&quot;font-size: 16px&quot;&gt;&lt;span style=&quot;color: rgb(69 , 69 , 69)&quot;&gt;&lt;b&gt;&lt;font style=&quot;font-size: 16px&quot;&gt;wrfinput_d0&amp;lt;M&amp;gt;&lt;/font&gt;&lt;/b&gt;&lt;/span&gt;&lt;/div&gt;" style="whiteSpace=wrap;html=1;shape=mxgraph.basic.rectCallout;dx=42.57;dy=64;boundedLbl=1;align=left;fontSize=14;strokeColor=#d6b656;spacingTop=10;spacingLeft=5;direction=south;spacingBottom=10;spacingRight=5;verticalAlign=top;fillColor=#fff2cc;" parent="1" vertex="1">
          <mxGeometry x="570" y="540" width="257" height="190" as="geometry" />
        </mxCell>
        <mxCell id="fU0-VgSZ7xX_Alot_kdX-9" value="" style="edgeStyle=orthogonalEdgeStyle;rounded=0;orthogonalLoop=1;jettySize=auto;html=1;fontSize=14;fontColor=#616161;" parent="1" source="fU0-VgSZ7xX_Alot_kdX-7" target="fU0-VgSZ7xX_Alot_kdX-8" edge="1">
          <mxGeometry relative="1" as="geometry" />
        </mxCell>
        <mxCell id="fU0-VgSZ7xX_Alot_kdX-7" value="GEOGRID" style="shape=hexagon;perimeter=hexagonPerimeter2;whiteSpace=wrap;html=1;fixedSize=1;strokeColor=#666666;fontSize=14;align=center;fontColor=#333333;fillColor=#f5f5f5;" parent="1" vertex="1">
          <mxGeometry x="63" y="210" width="120" height="80" as="geometry" />
        </mxCell>
        <mxCell id="fU0-VgSZ7xX_Alot_kdX-11" value="" style="edgeStyle=orthogonalEdgeStyle;rounded=0;orthogonalLoop=1;jettySize=auto;html=1;fontSize=14;fontColor=#616161;" parent="1" source="fU0-VgSZ7xX_Alot_kdX-8" target="fU0-VgSZ7xX_Alot_kdX-10" edge="1">
          <mxGeometry relative="1" as="geometry" />
        </mxCell>
        <mxCell id="fU0-VgSZ7xX_Alot_kdX-8" value="UNGRIB" style="shape=hexagon;perimeter=hexagonPerimeter2;whiteSpace=wrap;html=1;fixedSize=1;strokeColor=#666666;fontSize=14;align=center;fontColor=#333333;fillColor=#f5f5f5;" parent="1" vertex="1">
          <mxGeometry x="263" y="210" width="120" height="80" as="geometry" />
        </mxCell>
        <mxCell id="fU0-VgSZ7xX_Alot_kdX-13" value="" style="edgeStyle=orthogonalEdgeStyle;rounded=0;orthogonalLoop=1;jettySize=auto;html=1;fontSize=14;fontColor=#616161;" parent="1" source="fU0-VgSZ7xX_Alot_kdX-10" target="fU0-VgSZ7xX_Alot_kdX-12" edge="1">
          <mxGeometry relative="1" as="geometry" />
        </mxCell>
        <mxCell id="fU0-VgSZ7xX_Alot_kdX-10" value="METGRID" style="shape=hexagon;perimeter=hexagonPerimeter2;whiteSpace=wrap;html=1;fixedSize=1;strokeColor=#666666;fontSize=14;align=center;fontColor=#333333;fillColor=#f5f5f5;" parent="1" vertex="1">
          <mxGeometry x="463" y="210" width="120" height="80" as="geometry" />
        </mxCell>
        <mxCell id="fU0-VgSZ7xX_Alot_kdX-18" value="" style="rounded=0;orthogonalLoop=1;jettySize=auto;html=1;fontSize=14;fontColor=#787878;exitX=0.5;exitY=1;exitDx=0;exitDy=0;exitPerimeter=0;entryX=1;entryY=0.25;entryDx=0;entryDy=0;" parent="1" source="fU0-VgSZ7xX_Alot_kdX-27" target="fU0-VgSZ7xX_Alot_kdX-19" edge="1">
          <mxGeometry relative="1" as="geometry">
            <mxPoint x="523" y="490.0000000000002" as="targetPoint" />
          </mxGeometry>
        </mxCell>
        <mxCell id="fU0-VgSZ7xX_Alot_kdX-29" value="" style="edgeStyle=orthogonalEdgeStyle;curved=1;rounded=0;orthogonalLoop=1;jettySize=auto;html=1;fontSize=14;fontColor=#787878;entryX=0.5;entryY=0;entryDx=0;entryDy=0;entryPerimeter=0;" parent="1" source="fU0-VgSZ7xX_Alot_kdX-12" target="fU0-VgSZ7xX_Alot_kdX-27" edge="1">
          <mxGeometry relative="1" as="geometry" />
        </mxCell>
        <mxCell id="fU0-VgSZ7xX_Alot_kdX-12" value="REAL" style="shape=hexagon;perimeter=hexagonPerimeter2;whiteSpace=wrap;html=1;fixedSize=1;strokeColor=#666666;fontSize=14;align=center;fontColor=#333333;fillColor=#f5f5f5;" parent="1" vertex="1">
          <mxGeometry x="463" y="330" width="120" height="80" as="geometry" />
        </mxCell>
        <mxCell id="fU0-VgSZ7xX_Alot_kdX-21" value="" style="edgeStyle=none;rounded=0;orthogonalLoop=1;jettySize=auto;html=1;fontSize=14;fontColor=#787878;" parent="1" source="fU0-VgSZ7xX_Alot_kdX-19" target="fU0-VgSZ7xX_Alot_kdX-20" edge="1">
          <mxGeometry relative="1" as="geometry" />
        </mxCell>
        <mxCell id="fU0-VgSZ7xX_Alot_kdX-19" value="WRFDA" style="shape=hexagon;perimeter=hexagonPerimeter2;whiteSpace=wrap;html=1;fixedSize=1;strokeColor=#666666;fontSize=14;align=center;fontColor=#333333;fillColor=#f5f5f5;" parent="1" vertex="1">
          <mxGeometry x="73" y="760" width="120" height="80" as="geometry" />
        </mxCell>
        <mxCell id="fU0-VgSZ7xX_Alot_kdX-23" value="" style="edgeStyle=orthogonalEdgeStyle;rounded=0;orthogonalLoop=1;jettySize=auto;html=1;fontSize=14;fontColor=#787878;entryX=0.5;entryY=1;entryDx=0;entryDy=0;exitX=0.5;exitY=1;exitDx=0;exitDy=0;" parent="1" source="fU0-VgSZ7xX_Alot_kdX-20" target="fU0-VgSZ7xX_Alot_kdX-19" edge="1">
          <mxGeometry relative="1" as="geometry">
            <mxPoint x="473" y="799.9999999999998" as="targetPoint" />
            <Array as="points">
              <mxPoint x="333" y="920" />
              <mxPoint x="133" y="920" />
            </Array>
          </mxGeometry>
        </mxCell>
        <mxCell id="fU0-VgSZ7xX_Alot_kdX-25" value="LOOP FOR EACH DA CYCLE" style="edgeLabel;html=1;align=center;verticalAlign=middle;resizable=0;points=[];fontSize=14;fontColor=#787878;fontStyle=2" parent="fU0-VgSZ7xX_Alot_kdX-23" vertex="1" connectable="0">
          <mxGeometry x="0.3924" y="-2" relative="1" as="geometry">
            <mxPoint x="77.14" y="22" as="offset" />
          </mxGeometry>
        </mxCell>
        <mxCell id="fU0-VgSZ7xX_Alot_kdX-32" value="" style="edgeStyle=orthogonalEdgeStyle;curved=1;rounded=0;orthogonalLoop=1;jettySize=auto;html=1;fontSize=14;fontColor=#787878;" parent="1" source="fU0-VgSZ7xX_Alot_kdX-20" target="fU0-VgSZ7xX_Alot_kdX-31" edge="1">
          <mxGeometry relative="1" as="geometry" />
        </mxCell>
        <mxCell id="fU0-VgSZ7xX_Alot_kdX-20" value="WRF" style="shape=hexagon;perimeter=hexagonPerimeter2;whiteSpace=wrap;html=1;fixedSize=1;strokeColor=#666666;fontSize=14;align=center;fontColor=#333333;fillColor=#f5f5f5;" parent="1" vertex="1">
          <mxGeometry x="273" y="760" width="120" height="80" as="geometry" />
        </mxCell>
        <mxCell id="fU0-VgSZ7xX_Alot_kdX-27" value="" style="strokeWidth=2;html=1;shape=mxgraph.flowchart.database;whiteSpace=wrap;fontSize=14;align=center;fillColor=#d5e8d4;strokeColor=#82b366;" parent="1" vertex="1">
          <mxGeometry x="493" y="500" width="60" height="60" as="geometry" />
        </mxCell>
        <mxCell id="fU0-VgSZ7xX_Alot_kdX-38" value="" style="edgeStyle=orthogonalEdgeStyle;rounded=0;orthogonalLoop=1;jettySize=auto;html=1;fontSize=14;fontColor=#787878;entryX=0.4;entryY=0.1;entryDx=0;entryDy=0;entryPerimeter=0;exitX=1;exitY=0.7;exitDx=0;exitDy=0;" parent="1" source="fU0-VgSZ7xX_Alot_kdX-31" target="fU0-VgSZ7xX_Alot_kdX-36" edge="1">
          <mxGeometry relative="1" as="geometry">
            <mxPoint x="743" y="800" as="targetPoint" />
          </mxGeometry>
        </mxCell>
        <mxCell id="fU0-VgSZ7xX_Alot_kdX-31" value="" style="shape=cylinder;whiteSpace=wrap;html=1;boundedLbl=1;backgroundOutline=1;fontSize=14;strokeColor=#82b366;fillColor=#d5e8d4;" parent="1" vertex="1">
          <mxGeometry x="633" y="760" width="60" height="80" as="geometry" />
        </mxCell>
        <mxCell id="fU0-VgSZ7xX_Alot_kdX-33" value="&lt;div style=&quot;font-size: 14px&quot;&gt;&lt;font color=&quot;#454545&quot;&gt;Last WRF process produces as output a set of various AUX files, each containing results for a single hour of one of the domains.&lt;br&gt;&lt;br&gt;&lt;b&gt;AUX*&lt;/b&gt;&lt;/font&gt;&lt;/div&gt;" style="whiteSpace=wrap;html=1;shape=mxgraph.basic.rectCallout;dx=68.29;dy=54;boundedLbl=1;align=left;fontSize=14;strokeColor=#d6b656;spacingTop=10;spacingLeft=5;direction=west;spacingBottom=10;spacingRight=5;verticalAlign=top;fillColor=#fff2cc;" parent="1" vertex="1">
          <mxGeometry x="425" y="850" width="205" height="190" as="geometry" />
        </mxCell>
        <mxCell id="fU0-VgSZ7xX_Alot_kdX-15" value="" style="edgeStyle=orthogonalEdgeStyle;rounded=0;orthogonalLoop=1;jettySize=auto;html=1;fontSize=14;fontColor=#616161;entryX=1;entryY=0.75;entryDx=0;entryDy=0;exitX=1;exitY=0.25;exitDx=0;exitDy=0;" parent="1" source="fU0-VgSZ7xX_Alot_kdX-12" target="fU0-VgSZ7xX_Alot_kdX-12" edge="1">
          <mxGeometry relative="1" as="geometry">
            <mxPoint x="476" y="340" as="sourcePoint" />
            <mxPoint x="583" y="400" as="targetPoint" />
            <Array as="points">
              <mxPoint x="733" y="353" />
              <mxPoint x="733" y="387" />
            </Array>
          </mxGeometry>
        </mxCell>
        <mxCell id="fU0-VgSZ7xX_Alot_kdX-16" value="LOOP FOR EACH&lt;br&gt;&amp;nbsp;DA CYCLE" style="edgeLabel;html=1;align=center;verticalAlign=middle;resizable=0;points=[];fontSize=14;fontStyle=2;fontColor=#787878;" parent="fU0-VgSZ7xX_Alot_kdX-15" vertex="1" connectable="0">
          <mxGeometry x="-0.7" relative="1" as="geometry">
            <mxPoint x="65.71" y="-32.86" as="offset" />
          </mxGeometry>
        </mxCell>
        <mxCell id="fU0-VgSZ7xX_Alot_kdX-36" value="&lt;font color=&quot;#1f1f1f&quot;&gt;RISICO, &lt;br&gt;Continuum, etc.&lt;/font&gt;" style="ellipse;shape=cloud;whiteSpace=wrap;html=1;strokeColor=#6c8ebf;fontSize=14;align=center;fillColor=#dae8fc;" parent="1" vertex="1">
          <mxGeometry x="640" y="980" width="197" height="110" as="geometry" />
        </mxCell>
        <mxCell id="fU0-VgSZ7xX_Alot_kdX-42" value="" style="rounded=0;orthogonalLoop=1;jettySize=auto;html=1;fontSize=14;fontColor=#787878;" parent="1" source="fU0-VgSZ7xX_Alot_kdX-39" target="fU0-VgSZ7xX_Alot_kdX-8" edge="1">
          <mxGeometry relative="1" as="geometry" />
        </mxCell>
        <mxCell id="fU0-VgSZ7xX_Alot_kdX-39" value="GFS or IFS" style="ellipse;shape=cloud;whiteSpace=wrap;html=1;strokeColor=#d79b00;fontSize=14;align=center;fillColor=#ffe6cc;" parent="1" vertex="1">
          <mxGeometry x="420" y="30" width="120" height="80" as="geometry" />
        </mxCell>
        <mxCell id="fU0-VgSZ7xX_Alot_kdX-41" value="" style="rounded=0;orthogonalLoop=1;jettySize=auto;html=1;fontSize=14;fontColor=#787878;" parent="1" source="fU0-VgSZ7xX_Alot_kdX-40" target="fU0-VgSZ7xX_Alot_kdX-7" edge="1">
          <mxGeometry relative="1" as="geometry" />
        </mxCell>
        <mxCell id="fU0-VgSZ7xX_Alot_kdX-40" value="GEO DATA" style="ellipse;shape=cloud;whiteSpace=wrap;html=1;strokeColor=#d79b00;fontSize=14;align=center;fillColor=#ffe6cc;" parent="1" vertex="1">
          <mxGeometry x="193" y="20" width="120" height="80" as="geometry" />
        </mxCell>
        <mxCell id="fU0-VgSZ7xX_Alot_kdX-44" value="" style="rounded=0;orthogonalLoop=1;jettySize=auto;html=1;fontSize=14;fontColor=#787878;entryX=0.5;entryY=0;entryDx=0;entryDy=0;" parent="1" source="fU0-VgSZ7xX_Alot_kdX-43" target="fU0-VgSZ7xX_Alot_kdX-19" edge="1">
          <mxGeometry relative="1" as="geometry" />
        </mxCell>
        <mxCell id="fU0-VgSZ7xX_Alot_kdX-43" value="RADARS" style="ellipse;shape=cloud;whiteSpace=wrap;html=1;strokeColor=#d79b00;fontSize=14;align=center;fillColor=#ffe6cc;" parent="1" vertex="1">
          <mxGeometry x="179.5" y="460" width="147" height="80" as="geometry" />
        </mxCell>
        <mxCell id="fU0-VgSZ7xX_Alot_kdX-46" value="" style="edgeStyle=none;rounded=0;orthogonalLoop=1;jettySize=auto;html=1;fontSize=14;fontColor=#787878;entryX=0.625;entryY=0;entryDx=0;entryDy=0;" parent="1" source="fU0-VgSZ7xX_Alot_kdX-45" target="fU0-VgSZ7xX_Alot_kdX-19" edge="1">
          <mxGeometry relative="1" as="geometry" />
        </mxCell>
        <mxCell id="fU0-VgSZ7xX_Alot_kdX-45" value="OBSERVATIONS" style="ellipse;shape=cloud;whiteSpace=wrap;html=1;strokeColor=#d79b00;fontSize=14;align=center;fillColor=#ffe6cc;" parent="1" vertex="1">
          <mxGeometry x="258" y="530" width="150" height="80" as="geometry" />
        </mxCell>
      </root>
    </mxGraphModel>
  </diagram>
</mxfile>
